<svg width="121" height="104" viewBox="0 0 121 104" fill="none" xmlns="http://www.w3.org/2000/svg">
<g filter="url(#filter0_i_572_1477)">
<g clip-path="url(#clip0_572_1477)">
<path d="M17.1869 6.14346H33.1009L32.9692 13.011L17.1869 23.389V6.14346ZM60.0122 0.153586L1.84351 37.6287C-0.461288 39.1207 -0.658842 42.4118 1.47035 44.1451L1.5362 44.189C2.89713 45.308 4.80682 45.4177 6.29945 44.4523L60.2756 9.67595L114.23 44.4523C115.722 45.4177 117.654 45.2861 119.015 44.1671H119.037C121.166 42.3899 120.969 39.0987 118.664 37.6067L60.517 0.153586L60.2536 0L60.0122 0.153586Z" fill="#2E3192"/>
<path d="M14.0037 62.0641C11.7867 61.8886 11.2818 59.7823 11.5672 56.535C11.7867 53.6608 12.4452 52.3224 15.2768 52.6076C16.6597 52.7173 18.3279 52.827 20.1498 52.8928L20.0839 50.611C20.0839 48.1097 21.6863 48 25.2423 48C29.0178 48 30.225 48.4388 29.8958 51.2692L29.7202 52.827L31.2787 52.7173C35.1639 52.3224 37.754 52.827 38.7638 56.2059C39.8832 60.0895 38.5882 64.1705 34.659 68.5586C36.7004 69.4363 39.0272 70.2262 40.3661 70.4895C43.1978 71.1038 43.7465 71.9814 43.0221 75.2506C42.2539 78.8489 41.3539 79.8363 39.093 79.3975C36.1517 78.7831 31.6738 77.1156 29.4568 75.9089C28.6227 75.47 27.8544 74.9654 27.3495 74.2413C23.5741 76.5671 19.0303 78.7173 14.8817 79.7266C12.3793 80.3409 11.4574 79.3316 10.4477 75.7992C9.56967 72.7055 9.83308 71.4768 12.5988 70.643C19.0303 68.7561 26.7788 64.2802 28.5568 62.2177C28.7324 61.9983 28.8422 61.7131 28.3373 61.7789C24.7374 62.3274 18.745 62.3932 13.9817 62.0641H14.0037ZM36.437 90.5215C30.0714 90.5215 27.3056 91.1797 27.3056 92.8034C27.3056 94.1418 28.6885 95.173 37.0077 95.173C45.3269 95.173 47.083 94.2295 47.083 92.8473C47.083 91.6844 45.9855 91.07 44.0319 90.8506C41.749 90.5654 41.5295 88.7443 41.749 85.7603C41.9685 82.93 42.5831 82.2059 45.8976 82.3156C51.8901 82.535 57.9265 85.3654 57.9265 92.6717C57.9265 100.702 52.1096 104.366 36.9858 104.366C21.8619 104.366 16.4402 100.044 16.4402 92.6717C16.4402 85.2996 23.0253 81.438 36.5029 81.7013C39.7076 81.7671 40.8271 82.93 40.7174 86.4186C40.5417 89.9072 39.3784 90.5215 36.459 90.5215H36.437ZM51.7584 78.7612C48.9927 78.7612 47.061 78.7173 46.9074 75.3603C46.7976 73.0565 46.7537 70.1823 46.7537 67.1544H43.4612C41.0686 67.1544 40.5417 65.5308 40.5417 62.7662C40.5417 60.0017 41.0686 58.3781 43.4612 58.3781H46.7537L46.9074 52.0591C47.061 48.724 48.9927 48.1316 51.7584 48.1316C54.5242 48.1316 56.7851 48.5485 56.6314 51.8835C56.368 58.1586 56.368 68.8219 56.6314 75.0751C56.7851 78.4101 54.5461 78.7392 51.7584 78.7392V78.7612Z" fill="white"/>
<path d="M95.5507 62.4001H97.197C97.197 65.801 97.3067 69.1579 97.4165 72.0761C97.5701 75.4769 99.5457 75.5427 102.904 75.5427C105.714 75.5427 107.47 75.2136 107.316 71.8128C107.053 65.428 106.987 57.244 107.316 50.8592C107.47 47.4583 105.714 47.0195 102.904 47.0195C99.2823 47.0195 97.5921 47.6119 97.4165 51.0128L97.3067 53.6238H95.5507C93.0922 53.6238 92.5654 55.3351 92.5654 58.1436C92.5654 60.952 93.0922 62.4001 95.5507 62.4001Z" fill="#FEFEFF"/>
<path d="M72.5015 75.624C72.5015 77.9278 73.599 78.0155 76.8916 78.0155C80.1841 78.0155 81.2817 77.9717 81.2817 75.624V75.5143C85.3645 75.5582 89.6228 75.5582 91.5545 75.1193C93.0471 74.7683 93.7056 73.9784 93.3983 71.4772C93.0471 68.4274 91.6423 68.1421 89.7545 68.3396C86.8571 68.6468 81.5231 68.6468 76.6282 68.4932C71.9308 68.3396 66.2017 68.4932 62.4701 69.1953C60.7141 69.5463 60.0775 70.6873 60.3848 73.1885C60.7361 76.1286 62.4262 76.3261 64.2262 76.0409C66.4651 75.6459 69.3187 75.4485 72.5015 75.3826V75.624Z" fill="#FEFEFF"/>
<path d="M83.5438 48.4675C81.678 48.0726 79.0879 47.8312 75.488 47.7873C66.4005 47.6557 61.7031 50.6616 61.7031 56.6954C61.7031 62.7291 65.8079 66.2177 76.388 66.2177C86.9681 66.2177 91.3362 63.0582 91.3362 56.6954C91.3362 51.4515 87.0998 49.016 83.5438 48.4675Z" fill="#FEFEFF"/>
<path d="M108.084 96.8914C107.36 94.0171 105.757 94.2365 103.145 94.6754C100.05 95.2239 87.8456 95.7285 78.9996 95.5091C76.7387 95.4433 76.6729 95.0045 76.8485 93.7977V93.688C85.1677 94.0829 95.5722 93.8635 102.772 92.9201C106.372 92.3716 106.986 90.8138 106.328 88.6635C106.218 88.1589 105.999 87.7859 105.713 87.5007C106.943 80.0188 103.496 78.1977 95.5722 78.9657C90.1943 79.4703 76.8924 79.2948 71.0316 78.8998C68.2658 78.6804 67.3659 79.2948 66.9269 81.8399C66.5318 84.2315 67.0366 85.2627 69.6926 85.5479C74.0608 85.9867 88.8115 86.272 93.1357 85.9867C95.1332 85.877 95.9014 85.9867 95.6819 87.5446C88.3066 88.2028 77.7923 87.9834 71.1413 87.4348C67.0366 87.1496 66.7074 87.6543 66.3122 89.4315C66.0269 90.7699 65.9171 91.7572 66.7513 92.4154L66.4659 94.1268C65.7415 98.4492 66.9708 101.389 72.2828 101.938C78.7142 102.596 101.587 102.333 105.955 101.28C108.567 100.731 108.611 99.1732 108.062 96.9133L108.084 96.8914Z" fill="#FEFEFF"/>
<path d="M78.8236 51.9123C79.0431 52.746 79.0651 53.6456 78.8236 54.5891C78.2749 56.7612 76.4091 58.4726 74.1043 58.8676C72.8531 59.087 71.6678 58.9114 70.6361 58.4946C70.3947 58.3849 70.1752 58.6481 70.2849 58.8676C71.4263 60.8642 73.7531 62.1368 76.3652 61.8076C79.0212 61.4785 81.1723 59.3941 81.4796 56.849C81.743 54.7427 80.7992 52.8338 79.2187 51.649C79.0212 51.4954 78.7139 51.6709 78.7797 51.9123H78.8236Z" fill="#FCD53F"/>
<path d="M80.7333 54.7427C80.7333 54.7427 80.7333 54.9182 80.6894 54.9841C80.6455 55.0718 80.6016 55.1376 80.5357 55.1815C80.4699 55.2473 80.404 55.2912 80.3162 55.3132C80.2284 55.3351 80.1406 55.357 80.0528 55.357C79.965 55.357 79.8772 55.357 79.7894 55.3132C79.7016 55.2912 79.6357 55.2254 79.5699 55.1815C79.504 55.1157 79.4601 55.0499 79.4162 54.9841C79.3723 54.8963 79.3723 54.8305 79.3723 54.7427C79.3723 54.5672 79.4382 54.4136 79.5699 54.2819C79.7016 54.1722 79.8772 54.0845 80.0528 54.0845C80.2284 54.0845 80.404 54.1503 80.5357 54.2819C80.6674 54.3916 80.7333 54.5672 80.7333 54.7427ZM75.2017 59.9866C75.2017 59.9866 75.2018 60.1621 75.1579 60.2279C75.114 60.3157 75.07 60.3815 75.0042 60.4254C74.9383 60.4912 74.8725 60.5351 74.7847 60.557C74.6969 60.579 74.6091 60.6009 74.5213 60.6009C74.4335 60.6009 74.3457 60.6009 74.2579 60.557C74.1701 60.5351 74.1042 60.4693 74.0384 60.4254C73.9725 60.3596 73.9286 60.2938 73.8847 60.2279C73.8408 60.1402 73.8408 60.0743 73.8408 59.9866C73.8408 59.8111 73.9067 59.6575 74.0384 59.5258C74.1701 59.4161 74.3457 59.3284 74.5213 59.3284C74.6969 59.3284 74.8725 59.3942 75.0042 59.5258C75.1359 59.6355 75.2017 59.8111 75.2017 59.9866ZM80.2723 57.3537C80.3821 57.3537 80.4918 57.3098 80.5796 57.244C80.6674 57.1781 80.7113 57.0684 80.7113 56.9587C80.7113 56.849 80.6674 56.7393 80.5796 56.6735C80.4918 56.6077 80.3821 56.5638 80.2723 56.5638C80.1625 56.5638 80.0528 56.6077 79.965 56.6735C79.8772 56.7393 79.8333 56.849 79.8333 56.9587C79.8333 57.0684 79.8772 57.1781 79.965 57.244C80.0528 57.3098 80.1625 57.3537 80.2723 57.3537ZM79.4162 58.5824C79.4162 58.736 79.3723 58.9115 79.3284 59.0431C79.2626 59.1967 79.1748 59.3284 79.0431 59.4381C78.9333 59.5478 78.7797 59.6355 78.626 59.7013C78.4724 59.7672 78.2968 59.7891 78.1431 59.7891C77.9895 59.7891 77.8139 59.7672 77.6602 59.7013C77.5065 59.6355 77.3529 59.5478 77.2431 59.4381C77.1334 59.3284 77.0236 59.1967 76.9578 59.0431C76.8919 58.8895 76.87 58.736 76.87 58.5824C76.87 58.2533 77.0017 57.9461 77.2431 57.7267C77.4846 57.5073 77.8138 57.3756 78.1431 57.3756C78.4724 57.3756 78.8016 57.5073 79.0431 57.7267C79.2845 57.9461 79.4162 58.2752 79.4162 58.5824Z" fill="#F8C23A"/>
</g>
</g>
<defs>
<filter id="filter0_i_572_1477" x="0" y="0" width="120.508" height="104" filterUnits="userSpaceOnUse" color-interpolation-filters="sRGB">
<feFlood flood-opacity="0" result="BackgroundImageFix"/>
<feBlend mode="normal" in="SourceGraphic" in2="BackgroundImageFix" result="shape"/>
<feColorMatrix in="SourceAlpha" type="matrix" values="0 0 0 0 0 0 0 0 0 0 0 0 0 0 0 0 0 0 127 0" result="hardAlpha"/>
<feOffset dy="2"/>
<feComposite in2="hardAlpha" operator="arithmetic" k2="-1" k3="1"/>
<feColorMatrix type="matrix" values="0 0 0 0 0 0 0 0 0 0 0 0 0 0 0 0 0 0 0.25 0"/>
<feBlend mode="normal" in2="shape" result="effect1_innerShadow_572_1477"/>
</filter>
<clipPath id="clip0_572_1477">
<rect width="120.508" height="104" fill="white"/>
</clipPath>
</defs>
</svg>
