<svg width="25" height="31" viewBox="0 0 25 31" fill="none" xmlns="http://www.w3.org/2000/svg">
<path d="M12.0312 0C8.84147 0.00361858 5.78338 1.27236 3.52787 3.52787C1.27235 5.78338 0.00361858 8.84147 0 12.0312C0 22.3262 10.9375 30.1014 11.4037 30.4268C11.5876 30.5556 11.8067 30.6247 12.0312 30.6247C12.2558 30.6247 12.4749 30.5556 12.6588 30.4268C13.125 30.1014 24.0625 22.3262 24.0625 12.0312C24.0589 8.84147 22.7901 5.78338 20.5346 3.52787C18.2791 1.27236 15.221 0.00361858 12.0312 0ZM12.0312 7.65625C12.8965 7.65625 13.7424 7.91284 14.4619 8.39357C15.1813 8.8743 15.7421 9.55758 16.0732 10.357C16.4044 11.1564 16.491 12.0361 16.3222 12.8848C16.1534 13.7334 15.7367 14.513 15.1248 15.1248C14.513 15.7367 13.7334 16.1534 12.8848 16.3222C12.0361 16.491 11.1564 16.4044 10.357 16.0732C9.55758 15.7421 8.8743 15.1813 8.39357 14.4619C7.91284 13.7424 7.65625 12.8965 7.65625 12.0312C7.65625 10.8709 8.11719 9.75813 8.93766 8.93766C9.75813 8.11719 10.8709 7.65625 12.0312 7.65625Z" fill="#1C6AEF"/>
</svg>
