<svg width="63" height="63" viewBox="0 0 63 63" fill="none" xmlns="http://www.w3.org/2000/svg">
<rect width="62.5" height="62.5" rx="31.25" fill="#EBF2FE"/>
<path d="M50.0719 18.6538C47.6476 17.6369 45.2213 17.25 42.7964 17.25C35.0984 17.2494 27.401 21.1462 19.703 21.1462C17.7724 21.1462 15.8431 20.9013 13.9125 20.2888C13.6956 20.22 13.4781 20.1875 13.2656 20.1875C12.19 20.1875 11.25 21.02 11.25 22.1756V42.0044C11.25 42.7938 11.7019 43.5419 12.4275 43.8456C14.8518 44.8631 17.278 45.25 19.703 45.25C27.401 45.25 35.099 41.3531 42.797 41.3531C44.7276 41.3531 46.6569 41.5981 48.5875 42.2106C48.8044 42.2794 49.0219 42.3119 49.2344 42.3119C50.31 42.3119 51.25 41.4794 51.25 40.3237V20.4956C51.2494 19.7056 50.7975 18.9581 50.0719 18.6538ZM31.2497 37.25C28.4879 37.25 26.2498 34.5631 26.2498 31.25C26.2498 27.9362 28.4885 25.25 31.2497 25.25C34.0109 25.25 36.2496 27.9362 36.2496 31.25C36.2496 34.5644 34.0103 37.25 31.2497 37.25Z" fill="#4A8DF1"/>
</svg>
