<svg width="50" height="50" viewBox="0 0 50 50" fill="none" xmlns="http://www.w3.org/2000/svg">
<rect width="50" height="50" rx="25" fill="#EBF2FE"/>
<path d="M25 22.1111C25.6639 22.1111 26.3213 21.9803 26.9347 21.7263C27.548 21.4722 28.1054 21.0998 28.5748 20.6304C29.0443 20.1609 29.4167 19.6036 29.6707 18.9902C29.9248 18.3769 30.0556 17.7195 30.0556 17.0556C30.0556 16.3917 29.9248 15.7342 29.6707 15.1209C29.4167 14.5075 29.0443 13.9502 28.5748 13.4807C28.1054 13.0113 27.548 12.6389 26.9347 12.3848C26.3213 12.1308 25.6639 12 25 12C23.6592 12 22.3733 12.5326 21.4252 13.4807C20.4771 14.4288 19.9444 15.7147 19.9444 17.0556C19.9444 18.3964 20.4771 19.6823 21.4252 20.6304C22.3733 21.5785 23.6592 22.1111 25 22.1111ZM12 37.1333V38H38V37.1333C38 33.8978 38 32.28 37.3702 31.0436C36.8163 29.9564 35.9324 29.0726 34.8453 28.5187C33.6089 27.8889 31.9911 27.8889 28.7556 27.8889H21.2444C18.0089 27.8889 16.3911 27.8889 15.1547 28.5187C14.0676 29.0726 13.1837 29.9564 12.6298 31.0436C12 32.28 12 33.8978 12 37.1333Z" fill="#4A8DF1" stroke="#4A8DF1" stroke-width="2.91667" stroke-linecap="round" stroke-linejoin="round"/>
</svg>
