<svg width="50" height="50" viewBox="0 0 50 50" fill="none" xmlns="http://www.w3.org/2000/svg">
<rect width="50" height="50" rx="25" fill="#EBF2FE"/>
<path d="M25 13.5C26.4697 13.5 27.8793 14.0849 28.9185 15.1261C29.9578 16.1672 30.5417 17.5793 30.5417 19.0517C30.5417 20.5241 29.9578 21.9362 28.9185 22.9774C27.8793 24.0185 26.4697 24.6034 25 24.6034C23.5303 24.6034 22.1207 24.0185 21.0815 22.9774C20.0422 21.9362 19.4583 20.5241 19.4583 19.0517C19.4583 17.5793 20.0422 16.1672 21.0815 15.1261C22.1207 14.0849 23.5303 13.5 25 13.5ZM13.9167 17.4655C14.8033 17.4655 15.6267 17.7034 16.3392 18.1317C16.1017 20.4 16.7667 22.6524 18.1283 24.4131C17.3367 25.9359 15.7533 26.9828 13.9167 26.9828C12.6569 26.9828 11.4487 26.4814 10.5579 25.589C9.66711 24.6966 9.16667 23.4862 9.16667 22.2241C9.16667 20.9621 9.66711 19.7517 10.5579 18.8593C11.4487 17.9669 12.6569 17.4655 13.9167 17.4655ZM36.0833 17.4655C37.3431 17.4655 38.5513 17.9669 39.4421 18.8593C40.3329 19.7517 40.8333 20.9621 40.8333 22.2241C40.8333 23.4862 40.3329 24.6966 39.4421 25.589C38.5513 26.4814 37.3431 26.9828 36.0833 26.9828C34.2467 26.9828 32.6633 25.9359 31.8717 24.4131C33.2515 22.6274 33.8922 20.378 33.6608 18.1317C34.3733 17.7034 35.1967 17.4655 36.0833 17.4655ZM14.7083 33.7241C14.7083 30.4407 19.3158 27.7759 25 27.7759C30.6842 27.7759 35.2917 30.4407 35.2917 33.7241V36.5H14.7083V33.7241ZM6 36.5V34.1207C6 31.9159 8.9925 30.06 13.0458 29.5207C12.1117 30.5993 11.5417 32.0903 11.5417 33.7241V36.5H6ZM44 36.5H38.4583V33.7241C38.4583 32.0903 37.8883 30.5993 36.9542 29.5207C41.0075 30.06 44 31.9159 44 34.1207V36.5Z" fill="#4A8DF1"/>
</svg>
