<svg width="98" height="98" viewBox="0 0 98 98" fill="none" xmlns="http://www.w3.org/2000/svg">
<path d="M46.6624 81.1519H22.3168C21.2407 81.1519 20.2086 80.7244 19.4477 79.9635C18.6867 79.2025 18.2592 78.1704 18.2592 77.0943V20.288C18.2592 19.2119 18.6867 18.1798 19.4477 17.4189C20.2086 16.6579 21.2407 16.2304 22.3168 16.2304H42.6048V28.4032C42.6048 31.6316 43.8873 34.7278 46.1701 37.0106C48.4529 39.2935 51.5491 40.576 54.7775 40.576H66.9503V60.8639C66.9503 61.9401 67.3778 62.9721 68.1388 63.7331C68.8997 64.494 69.9318 64.9215 71.0079 64.9215C72.0841 64.9215 73.1161 64.494 73.8771 63.7331C74.638 62.9721 75.0655 61.9401 75.0655 60.8639V36.2749C75.0235 35.9021 74.9419 35.5349 74.8221 35.1794V34.8142C74.6315 34.3944 74.3708 34.0102 74.0511 33.6781L49.7056 9.33251C49.3734 9.01286 48.9892 8.75215 48.5694 8.56157C48.4351 8.53887 48.298 8.53887 48.1637 8.56157C47.7691 8.35059 47.3451 8.20013 46.9058 8.11523H22.3168C19.0884 8.11523 15.9922 9.39772 13.7094 11.6806C11.4265 13.9634 10.144 17.0596 10.144 20.288V77.0943C10.144 80.3227 11.4265 83.4189 13.7094 85.7018C15.9922 87.9846 19.0884 89.2671 22.3168 89.2671H46.6624C47.7385 89.2671 48.7706 88.8396 49.5315 88.0786C50.2925 87.3177 50.72 86.2856 50.72 85.2095C50.72 84.1333 50.2925 83.1013 49.5315 82.3403C48.7706 81.5794 47.7385 81.1519 46.6624 81.1519ZM50.72 21.9516L61.2291 32.4608H54.7775C53.7014 32.4608 52.6693 32.0333 51.9084 31.2723C51.1475 30.5114 50.72 29.4793 50.72 28.4032V21.9516ZM30.432 56.8063H54.7775C55.8537 56.8063 56.8858 56.3788 57.6467 55.6179C58.4076 54.8569 58.8351 53.8249 58.8351 52.7487C58.8351 51.6726 58.4076 50.6405 57.6467 49.8796C56.8858 49.1186 55.8537 48.6912 54.7775 48.6912H30.432C29.3559 48.6912 28.3238 49.1186 27.5629 49.8796C26.8019 50.6405 26.3744 51.6726 26.3744 52.7487C26.3744 53.8249 26.8019 54.8569 27.5629 55.6179C28.3238 56.3788 29.3559 56.8063 30.432 56.8063ZM46.6624 64.9215H30.432C29.3559 64.9215 28.3238 65.349 27.5629 66.11C26.8019 66.8709 26.3744 67.903 26.3744 68.9791C26.3744 70.0553 26.8019 71.0873 27.5629 71.8483C28.3238 72.6092 29.3559 73.0367 30.432 73.0367H46.6624C47.7385 73.0367 48.7706 72.6092 49.5315 71.8483C50.2925 71.0873 50.72 70.0553 50.72 68.9791C50.72 67.903 50.2925 66.8709 49.5315 66.11C48.7706 65.349 47.7385 64.9215 46.6624 64.9215ZM30.432 40.576H34.4896C35.5657 40.576 36.5978 40.1485 37.3587 39.3875C38.1197 38.6266 38.5472 37.5945 38.5472 36.5184C38.5472 35.4422 38.1197 34.4102 37.3587 33.6492C36.5978 32.8883 35.5657 32.4608 34.4896 32.4608H30.432C29.3559 32.4608 28.3238 32.8883 27.5629 33.6492C26.8019 34.4102 26.3744 35.4422 26.3744 36.5184C26.3744 37.5945 26.8019 38.6266 27.5629 39.3875C28.3238 40.1485 29.3559 40.576 30.432 40.576ZM86.0616 66.0982C85.6844 65.7179 85.2356 65.416 84.7411 65.21C84.2467 65.004 83.7163 64.898 83.1807 64.898C82.645 64.898 82.1147 65.004 81.6202 65.21C81.1258 65.416 80.677 65.7179 80.2998 66.0982L66.9503 79.4883L61.716 74.2134C61.3377 73.8351 60.8886 73.535 60.3943 73.3302C59.9 73.1255 59.3702 73.0201 58.8351 73.0201C58.3001 73.0201 57.7703 73.1255 57.276 73.3302C56.7817 73.535 56.3326 73.8351 55.9543 74.2134C55.5759 74.5917 55.2758 75.0409 55.0711 75.5352C54.8663 76.0295 54.7609 76.5593 54.7609 77.0943C54.7609 77.6293 54.8663 78.1591 55.0711 78.6534C55.2758 79.1477 55.5759 79.5969 55.9543 79.9752L64.0694 88.0904C64.4466 88.4707 64.8954 88.7725 65.3899 88.9785C65.8843 89.1845 66.4147 89.2906 66.9503 89.2906C67.486 89.2906 68.0163 89.1845 68.5108 88.9785C69.0052 88.7725 69.454 88.4707 69.8312 88.0904L86.0616 71.86C86.4419 71.4828 86.7438 71.034 86.9498 70.5396C87.1558 70.0451 87.2618 69.5148 87.2618 68.9791C87.2618 68.4435 87.1558 67.9131 86.9498 67.4187C86.7438 66.9242 86.4419 66.4754 86.0616 66.0982Z" fill="#1C6AEF"/>
</svg>
