<svg width="98" height="98" viewBox="0 0 98 98" fill="none" xmlns="http://www.w3.org/2000/svg">
<path d="M69.4863 61.2897C72.5264 61.2897 75.4419 62.4973 77.5916 64.647C79.7413 66.7967 80.949 69.7123 80.949 72.7524C80.949 75.7925 79.7413 78.7081 77.5916 80.8577C75.4419 83.0074 72.5264 84.2151 69.4863 84.2151C67.1135 84.2219 64.7975 83.4898 62.8597 82.1204C60.922 80.751 59.4587 78.8122 58.6731 76.5733H54.2027V68.9315H58.6731C60.2397 64.461 64.4809 61.2897 69.4863 61.2897ZM69.4863 68.9315C68.4729 68.9315 67.501 69.334 66.7845 70.0506C66.0679 70.7671 65.6654 71.739 65.6654 72.7524C65.6654 73.7657 66.0679 74.7376 66.7845 75.4542C67.501 76.1707 68.4729 76.5733 69.4863 76.5733C70.4996 76.5733 71.4715 76.1707 72.188 75.4542C72.9046 74.7376 73.3072 73.7657 73.3072 72.7524C73.3072 71.739 72.9046 70.7671 72.188 70.0506C71.4715 69.334 70.4996 68.9315 69.4863 68.9315ZM69.4863 34.5434C70.9354 34.5434 72.3251 33.9677 73.3498 32.943C74.3745 31.9184 74.9501 30.5286 74.9501 29.0795C74.9501 27.6304 74.3745 26.2406 73.3498 25.2159C72.3251 24.1913 70.9354 23.6156 69.4863 23.6156C68.0371 23.6156 66.6474 24.1913 65.6227 25.2159C64.598 26.2406 64.0224 27.6304 64.0224 29.0795C64.0224 30.5286 64.598 31.9184 65.6227 32.943C66.6474 33.9677 68.0371 34.5434 69.4863 34.5434ZM69.4863 13.7959C73.5397 13.7959 77.4272 15.4061 80.2934 18.2724C83.1596 21.1386 84.7699 25.026 84.7699 29.0795C84.7699 40.504 69.4863 57.4688 69.4863 57.4688C69.4863 57.4688 54.2027 40.504 54.2027 29.0795C54.2027 25.026 55.8129 21.1386 58.6791 18.2724C61.5454 15.4061 65.4328 13.7959 69.4863 13.7959ZM34.4486 68.9315H38.9191V76.5733H34.4486C33.663 78.8122 32.1997 80.751 30.262 82.1204C28.3243 83.4898 26.0082 84.2219 23.6355 84.2151C20.5954 84.2151 17.6798 83.0074 15.5301 80.8577C13.3805 78.7081 12.1728 75.7925 12.1728 72.7524C12.1728 67.747 15.3441 63.5058 19.8146 61.9392V57.4688H27.4564V61.9392C30.7041 63.0855 33.3023 65.6837 34.4486 68.9315ZM23.6355 68.9315C22.6221 68.9315 21.6502 69.334 20.9337 70.0506C20.2171 70.7671 19.8146 71.739 19.8146 72.7524C19.8146 73.7657 20.2171 74.7376 20.9337 75.4542C21.6502 76.1707 22.6221 76.5733 23.6355 76.5733C24.6488 76.5733 25.6207 76.1707 26.3373 75.4542C27.0538 74.7376 27.4564 73.7657 27.4564 72.7524C27.4564 71.739 27.0538 70.7671 26.3373 70.0506C25.6207 69.334 24.6488 68.9315 23.6355 68.9315ZM23.6355 15.4389C26.6756 15.4389 29.5912 16.6466 31.7408 18.7962C33.8905 20.9459 35.0982 23.8615 35.0982 26.9016C35.0982 31.907 31.9268 36.1482 27.4564 37.7147V42.1852H19.8146V37.7147C17.5756 36.9291 15.6369 35.4658 14.2674 33.5281C12.898 31.5904 12.1659 29.2744 12.1728 26.9016C12.1728 23.8615 13.3805 20.9459 15.5301 18.7962C17.6798 16.6466 20.5954 15.4389 23.6355 15.4389ZM23.6355 23.0807C22.6221 23.0807 21.6502 23.4832 20.9337 24.1998C20.2171 24.9164 19.8146 25.8882 19.8146 26.9016C19.8146 27.9149 20.2171 28.8868 20.9337 29.6034C21.6502 30.3199 22.6221 30.7225 23.6355 30.7225C24.6488 30.7225 25.6207 30.3199 26.3373 29.6034C27.0538 28.8868 27.4564 27.9149 27.4564 26.9016C27.4564 25.8882 27.0538 24.9164 26.3373 24.1998C25.6207 23.4832 24.6488 23.0807 23.6355 23.0807ZM42.74 76.5733V68.9315H50.3818V76.5733H42.74ZM27.4564 53.6479H19.8146V46.0061H27.4564V53.6479Z" fill="#1C6AEF"/>
</svg>
