<svg width="98" height="98" viewBox="0 0 98 98" fill="none" xmlns="http://www.w3.org/2000/svg">
<path d="M66.3416 65.6316L80.746 51.2271C81.5575 50.4156 82.5043 50.0261 83.5863 50.0586C84.6684 50.091 85.6151 50.5144 86.4267 51.3286C87.1705 52.1401 87.5425 53.0869 87.5425 54.1689C87.5425 55.2509 87.1705 56.1977 86.4267 57.0092L69.2833 74.254C68.4718 75.0655 67.525 75.4712 66.443 75.4712C65.361 75.4712 64.4142 75.0655 63.6027 74.254L54.8789 65.5301C54.135 64.7863 53.763 63.8395 53.763 62.6898C53.763 61.5402 54.135 60.5934 54.8789 59.8495C55.6228 59.1056 56.5695 58.7337 57.7192 58.7337C58.8688 58.7337 59.8156 59.1056 60.5595 59.8495L66.3416 65.6316ZM66.3416 33.1709L80.746 18.7664C81.5575 17.9549 82.5043 17.5654 83.5863 17.5978C84.6684 17.6303 85.6151 18.0536 86.4267 18.8678C87.1705 19.6794 87.5425 20.6261 87.5425 21.7082C87.5425 22.7902 87.1705 23.737 86.4267 24.5485L69.2833 41.7932C68.4718 42.6048 67.525 43.0105 66.443 43.0105C65.361 43.0105 64.4142 42.6048 63.6027 41.7932L54.8789 33.0694C54.135 32.3255 53.763 31.3788 53.763 30.2291C53.763 29.0795 54.135 28.1327 54.8789 27.3888C55.6228 26.6449 56.5695 26.273 57.7192 26.273C58.8688 26.273 59.8156 26.6449 60.5595 27.3888L66.3416 33.1709ZM12.1727 68.9791C11.0231 68.9791 10.0601 68.5896 9.28371 67.8105C8.50736 67.0315 8.11783 66.0685 8.11513 64.9215C8.11242 63.7746 8.50195 62.8116 9.28371 62.0325C10.0655 61.2534 11.0285 60.8639 12.1727 60.8639H40.5759C41.7255 60.8639 42.6899 61.2534 43.4689 62.0325C44.248 62.8116 44.6362 63.7746 44.6335 64.9215C44.6307 66.0685 44.2412 67.0328 43.4649 67.8146C42.6885 68.5963 41.7255 68.9845 40.5759 68.9791H12.1727ZM12.1727 36.5184C11.0231 36.5184 10.0601 36.1288 9.28371 35.3498C8.50736 34.5707 8.11783 33.6077 8.11513 32.4608C8.11242 31.3138 8.50195 30.3508 9.28371 29.5718C10.0655 28.7927 11.0285 28.4032 12.1727 28.4032H40.5759C41.7255 28.4032 42.6899 28.7927 43.4689 29.5718C44.248 30.3508 44.6362 31.3138 44.6335 32.4608C44.6307 33.6077 44.2412 34.5721 43.4649 35.3538C42.6885 36.1356 41.7255 36.5238 40.5759 36.5184H12.1727Z" fill="#1C6AEF"/>
</svg>
